<svg xmlns="http://www.w3.org/2000/svg" viewBox="0 0 45.41 51.33"><defs><style>.cls-1{fill:#f7f6f6;}</style></defs><g id="Layer_2" data-name="Layer 2"><g id="Layer_1-2" data-name="Layer 1"><path class="cls-1" d="M45.41,25.56a25,25,0,0,1-7.88,18.25,27.48,27.48,0,0,1-19,7.52H0V47.1A2.1,2.1,0,0,1,2.15,45H18.57a20.69,20.69,0,0,0,14.32-5.66,18.76,18.76,0,0,0,5.93-13.49c.09-10.71-9.37-19.48-20.61-19.48H2.15A2.1,2.1,0,0,1,0,4.36V0H18.1C33,0,45.35,11.36,45.41,25.56Z"/><path class="cls-1" d="M32,25.66A12.49,12.49,0,0,1,28,34.74,13.75,13.75,0,0,1,18.5,38.5H13.45V12.83H18.5C25.93,12.83,32,18.58,32,25.66Z"/><rect class="cls-1" y="12.83" width="6.73" height="25.67"/></g></g></svg>