<svg width="270" height="35" viewBox="0 0 270 35" fill="none" xmlns="http://www.w3.org/2000/svg">
<path fill-rule="evenodd" clip-rule="evenodd" d="M0 1.40284C0 2.9385 0.0609983 3.13616 0.625699 3.43102C0.880413 3.56395 1.69868 3.58801 5.96647 3.58801C11.5247 3.58801 12.0153 3.62868 13.7007 4.22859C15.3887 4.82945 16.6429 5.59528 17.8778 6.77913C19.2702 8.11409 20.2122 9.65343 20.7799 11.5217C21.0445 12.3924 21.0671 12.605 21.0662 14.2013C21.0651 16.2585 20.9035 17.0036 20.0975 18.6672C18.8106 21.3239 16.5666 23.2845 13.7133 24.2452C12.1469 24.7726 11.6858 24.8069 6.11022 24.8108C1.71992 24.814 0.880413 24.8386 0.625699 24.9715C0.065162 25.2641 0 25.4691 0 26.9396V28.2822H5.76682C11.0043 28.2822 11.6423 28.2634 12.7181 28.0778C18.6586 27.0525 23.3974 22.5093 24.5315 16.7521C24.7866 15.4576 24.783 12.7898 24.5247 11.5784C23.9228 8.75729 22.509 6.20013 20.478 4.25927C18.4177 2.29046 15.9278 0.985981 12.9595 0.319869C11.9654 0.0967808 11.6505 0.0843816 5.95929 0.0431897L0 0V1.40284ZM118.419 3.39204C115.43 3.77958 112.642 5.23863 110.386 7.59614C108.437 9.63293 107.15 12.0857 106.464 15.0741C106.253 15.989 106.239 16.3643 106.202 22.1612L106.162 28.2822H107.581H109.001L109.295 27.9848L109.59 27.6873L109.639 22.2841C109.693 16.4797 109.711 16.2577 110.285 14.5191C110.867 12.7586 111.665 11.4853 113.091 10.0413C115.137 7.96813 117.487 6.95062 120.227 6.95062C125.356 6.95062 129.657 10.808 130.581 16.2378C130.709 16.9877 130.74 18.1818 130.74 22.3164C130.74 26.9282 130.758 27.4924 130.913 27.7578C131.175 28.2053 131.464 28.2822 132.886 28.2822H134.189L134.146 22.1612C134.099 15.4515 134.085 15.2832 133.399 13.1992C131.245 6.6586 124.96 2.54403 118.419 3.39204ZM194.65 3.5092C194.147 3.7657 193.778 4.23762 193.613 4.83659C193.553 5.058 193.509 6.76368 193.508 8.9209C193.508 10.9581 193.479 12.625 193.443 12.625C193.407 12.625 193.085 12.348 192.726 12.0096C191.489 10.8416 190.338 10.2961 188.678 10.0924C187.079 9.89606 185.699 10.1079 184.348 10.7573C183.621 11.1065 183.304 11.3443 182.574 12.0876C181.008 13.6827 180.347 15.4257 180.214 18.3087C180.107 20.6596 180.494 22.647 181.409 24.4402C181.789 25.1866 182.086 25.5869 182.783 26.2918C184.224 27.7512 185.548 28.3098 187.574 28.3126C189.671 28.3155 191.12 27.6993 192.717 26.126C193.098 25.7514 193.431 25.445 193.458 25.445C193.485 25.445 193.508 25.7195 193.508 26.0549C193.508 27.3843 194.374 28.3323 195.588 28.3303C196.367 28.3291 197.006 27.9696 197.358 27.3351L197.619 26.8636L197.647 16.006C197.666 8.52632 197.64 5.01828 197.564 4.73004C197.241 3.52087 195.806 2.91948 194.65 3.5092ZM30.3429 3.60976C29.8788 3.77348 29.4041 4.16438 29.1343 4.6052C28.7769 5.18903 28.7953 6.21389 29.175 6.86803C29.9298 8.1682 31.9676 8.25237 32.9362 7.02355C33.203 6.68487 33.2575 6.51306 33.2917 5.90348C33.3429 4.98959 33.193 4.53658 32.6866 4.07485C32.0827 3.52402 31.1246 3.33392 30.3429 3.60976ZM0 14.1487V21.2417H1.82162H3.64323V14.1487V7.0557H1.82162H0V14.1487ZM7.28647 14.1487V21.2417H9.06041C11.1788 21.2417 12.0885 21.085 13.2718 20.5161C14.8806 19.7427 15.9852 18.6757 16.7085 17.1961C17.2038 16.1828 17.3837 15.3837 17.3819 14.2055C17.3788 12.2124 16.7623 10.7215 15.3593 9.31496C13.6269 7.57796 12.1078 7.0557 8.78831 7.0557H7.28647V14.1487ZM30.1305 10.1955C29.6323 10.424 29.2171 10.8913 29.0247 11.4402C28.9137 11.7566 28.8856 13.315 28.8856 19.1401C28.8856 27.0994 28.8722 26.9094 29.4846 27.6135C29.9405 28.1377 30.3474 28.3183 31.0764 28.3201C32.1294 28.3226 32.9277 27.7215 33.2038 26.7184C33.2694 26.4801 33.3078 23.6107 33.3066 19.035C33.3051 12.1498 33.2939 11.7078 33.1122 11.3115C32.5968 10.1879 31.248 9.68306 30.1305 10.1955ZM44.9809 10.1504C40.3923 11.0303 37.7618 14.6706 38.0293 19.7706C38.2196 23.3984 39.8484 26.0608 42.7299 27.4538C44.2475 28.1875 46.012 28.4724 47.8997 28.2884C49.3012 28.1517 50.0183 27.9573 51.1617 27.4039C52.8196 26.6015 53.9543 25.4531 54.8104 23.7111C55.5588 22.1881 55.7197 21.4068 55.7298 19.2452C55.7372 17.6762 55.7047 17.2719 55.5087 16.4911C55.0605 14.7055 54.3291 13.445 53.0314 12.2215C52.102 11.3453 50.8228 10.6511 49.4959 10.3026C48.4091 10.0173 46.0839 9.93893 44.9809 10.1504ZM61.5217 10.1643C61.0438 10.3737 60.814 10.5941 60.5447 11.1013C60.3226 11.5198 60.3215 11.5558 60.3215 18.9825C60.3215 27.1134 60.3073 26.9084 60.9205 27.6135C61.3764 28.1378 61.7834 28.3185 62.5075 28.3185C63.4348 28.3185 64.0571 27.9573 64.4702 27.1788C64.6856 26.773 64.6955 26.5977 64.7569 22.0824C64.7959 19.2103 64.8667 17.1833 64.9405 16.8283C65.116 15.9839 65.5504 15.1615 66.1136 14.6072C67.0762 13.66 68.3426 13.2943 69.5869 13.6043C70.4497 13.8193 70.8922 14.1435 71.1871 14.7767C71.7051 15.8891 71.7371 16.2446 71.8085 21.662C71.8731 26.5558 71.8844 26.7752 72.0931 27.1788C72.5469 28.0563 73.5458 28.5171 74.5166 28.297C75.2629 28.1277 75.8181 27.6028 76.0771 26.8217C76.2606 26.2686 76.2335 15.5602 76.046 14.4988C75.5387 11.627 73.103 9.87168 69.846 10.0307C67.9574 10.1229 66.6735 10.7013 65.3099 12.0742L64.5525 12.8368L64.4802 12.2318C64.3516 11.1536 64.0114 10.5837 63.2663 10.198C62.8024 9.95774 62.0277 9.94282 61.5217 10.1643ZM87.7669 10.1158C84.9731 10.5848 82.7294 12.4068 81.6776 15.0607C81.2148 16.2286 81.075 17.0021 81.0164 18.7198C80.9742 19.9571 81.0013 20.5836 81.1295 21.3266C81.7586 24.9743 84.1371 27.4394 87.6978 28.1341C88.9353 28.3756 91.234 28.3721 92.382 28.1271C95.2966 27.5048 97.6386 25.4788 97.6386 23.5799C97.6386 22.5872 97.1929 22.1875 96.0859 22.1875H95.4596L94.3892 23.1467C92.5759 24.7718 91.7516 25.2126 90.3407 25.312C88.5114 25.441 87.0495 24.6431 86.2134 23.0594C85.8302 22.3335 85.5639 21.3885 85.5639 20.7538V20.3102L90.6905 20.2711C96.2888 20.2284 96.5051 20.206 97.221 19.5978C97.8086 19.0987 97.8995 18.8026 97.8932 17.4062C97.8882 16.313 97.8494 16.0335 97.601 15.3046C97.1923 14.1059 96.5733 13.1048 95.717 12.2572C94.5802 11.1321 93.3803 10.4928 91.7878 10.1638C90.911 9.98265 88.7164 9.95638 87.7669 10.1158ZM145.214 10.1117C141.955 10.6909 139.504 12.9903 138.654 16.2636C137.997 18.7966 138.253 21.9775 139.274 23.9592C140.339 26.0254 141.975 27.3557 144.226 27.9868C144.948 28.1893 145.309 28.2185 147.083 28.2185C149.457 28.2185 150.122 28.0838 151.767 27.2692C153.576 26.3733 154.981 24.6487 155.161 23.1017C155.22 22.5885 155.192 22.4327 154.949 21.9308C154.576 21.1612 154.187 20.8911 153.385 20.8449C152.471 20.7924 152.167 20.9969 151.375 22.1943C149.94 24.365 148.919 24.9946 146.989 24.8998C146.308 24.8664 145.951 24.7896 145.498 24.5798C144.237 23.9947 143.333 22.7441 142.965 21.073C142.702 19.8786 142.796 17.6857 143.156 16.6427C143.848 14.6383 145.114 13.5829 146.944 13.4854C148.215 13.4178 149.062 13.7044 149.897 14.4847C150.247 14.8119 150.741 15.3735 150.995 15.7328C151.249 16.0921 151.65 16.5615 151.885 16.776C152.303 17.1571 152.328 17.165 153.014 17.1258C154.239 17.0559 154.928 16.3632 154.928 15.2012C154.928 14.2526 154.465 13.3395 153.489 12.3656C152.45 11.3288 151.343 10.7061 149.73 10.2518C148.997 10.0451 146.095 9.95501 145.214 10.1117ZM165.559 10.1087C164.039 10.344 162.324 11.0926 161.421 11.9146C160.483 12.7678 159.881 14.1848 160.043 15.1554C160.224 16.2328 161.576 16.9177 162.639 16.4695C162.895 16.3615 163.161 16.0662 163.613 15.387C164.336 14.3022 164.804 13.8542 165.606 13.4809C166.105 13.2489 166.362 13.2064 167.495 13.1693C170.062 13.0856 170.907 13.7248 171.095 15.8939C171.153 16.5623 171.146 16.5903 170.907 16.6418C170.771 16.6711 170.119 16.8393 169.459 17.0154C168.799 17.1917 167.113 17.5803 165.712 17.8791C164.311 18.178 162.91 18.5124 162.599 18.6225C161.253 19.0986 160.214 20.0169 159.636 21.2417C159.328 21.893 159.313 21.986 159.313 23.2437C159.313 24.5613 159.314 24.5636 159.713 25.3783C160.224 26.4224 160.977 27.183 161.991 27.6797C163.055 28.2004 163.693 28.3281 165.143 28.3108C167.158 28.2866 168.65 27.7795 170.6 26.4567C171.083 26.1293 171.508 25.8977 171.545 25.9421C171.582 25.9866 171.831 26.3379 172.097 26.7229C173.018 28.0513 173.821 28.5214 174.761 28.2827C175.682 28.0489 176.331 27.3209 176.332 26.5204C176.332 26.2739 176.165 25.4227 175.961 24.6289L175.589 23.1857L175.566 19.1926C175.541 14.7654 175.473 14.1617 174.852 12.8416C174.246 11.5545 172.982 10.6524 171.232 10.2577C170.318 10.0517 166.565 9.95312 165.559 10.1087ZM208.861 10.205C207.66 10.4665 206.058 11.2604 205.242 11.9975C204.085 13.0439 203.189 14.6152 202.746 16.3763C202.545 17.1774 202.515 17.5614 202.522 19.2452C202.532 21.5219 202.683 22.2703 203.443 23.8162C204.297 25.5547 205.281 26.5474 206.988 27.3911C208.089 27.9357 208.856 28.1345 210.439 28.2861C211.712 28.4079 213.233 28.3024 214.363 28.0137C214.715 27.9239 215.48 27.6171 216.063 27.3319C216.899 26.9237 217.276 26.6625 217.839 26.1013C219.744 24.2046 219.613 22.189 217.584 22.1879L216.939 22.1875L215.886 23.1401C213.947 24.8933 213.13 25.2896 211.464 25.2837C210.129 25.2788 209.474 25.0352 208.599 24.218C207.715 23.3916 207.04 21.8657 207.04 20.6942V20.296L211.75 20.2951C216.717 20.2943 217.449 20.2424 218.353 19.8265C219.094 19.4858 219.343 18.9948 219.406 17.7563C219.466 16.5509 219.23 15.4758 218.625 14.2064C218.226 13.3676 218.013 13.073 217.254 12.3111C216.517 11.5712 216.178 11.32 215.367 10.9135C213.954 10.2052 213.414 10.0842 211.464 10.0392C210.102 10.0079 209.627 10.038 208.861 10.205ZM225.306 10.1445C224.894 10.3255 224.377 10.9287 224.2 11.4338C224.086 11.7583 224.059 13.2617 224.059 19.1401V26.4433L224.297 26.9648C224.589 27.6044 224.785 27.8303 225.256 28.069C226.464 28.6816 227.812 28.2429 228.395 27.0476C228.637 26.5526 228.639 26.5066 228.7 21.7671C228.757 17.3509 228.779 16.9244 228.98 16.18C229.267 15.1217 229.536 14.6079 230.012 14.2123C230.839 13.5241 232.412 13.3271 233.346 13.7946C233.751 13.9973 233.898 14.1525 234.137 14.6289C234.535 15.4247 234.617 16.6784 234.622 22.0824C234.624 24.5984 234.668 26.4936 234.73 26.7184C235.059 27.9127 236.164 28.5474 237.437 28.2719C238.09 28.1304 238.635 27.6757 238.935 27.0212C239.142 26.5707 239.155 26.3217 239.212 21.7671C239.254 18.4016 239.312 16.8148 239.407 16.408C239.811 14.6841 241.108 13.5427 242.651 13.5548C243.396 13.5606 243.822 13.7338 244.24 14.2008C244.944 14.988 244.957 15.0958 245.027 21.1892C245.071 24.962 245.128 26.7393 245.211 26.9307C245.386 27.3323 245.95 27.9506 246.324 28.1493C246.525 28.2559 246.903 28.3216 247.325 28.3231C248.219 28.3262 248.804 28.0119 249.245 27.2923L249.561 26.7752L249.591 20.9485C249.623 14.543 249.578 13.8832 249.029 12.7461C248.636 11.9334 247.744 11.0556 246.907 10.6587C245.934 10.1971 245.238 10.0565 243.94 10.059C242.033 10.0627 240.711 10.6237 239.321 12.0199L238.625 12.7179L238.333 12.2522C237.322 10.6381 235.106 9.76807 232.829 10.0914C231.281 10.3112 230.195 10.8482 229.033 11.9683C228.658 12.3295 228.335 12.625 228.313 12.625C228.292 12.625 228.275 12.3867 228.275 12.0954C228.275 10.8873 227.352 9.99189 226.118 10.0021C225.844 10.0044 225.479 10.0684 225.306 10.1445ZM255.029 10.1149C254.568 10.3006 254.092 10.7369 253.869 11.1771C253.695 11.5226 253.66 11.7463 253.695 12.3006C253.732 12.8967 253.977 13.5986 255.46 17.3537C256.407 19.7522 257.732 23.111 258.403 24.8177L259.624 27.9209L259.13 29.0618C258.064 31.517 257.726 31.7249 255.176 31.4879C254.434 31.419 254.287 31.4357 253.903 31.6334C253.359 31.9137 253.153 32.3094 253.153 33.072C253.153 34.1117 253.609 34.578 254.895 34.8533C255.804 35.0477 258.093 35.0492 258.995 34.8561C260.89 34.4507 262.077 33.2546 263.143 30.6775C263.977 28.6634 269.516 13.9233 269.763 13.0616C270.065 12.0074 270.074 11.6624 269.813 11.082C269.286 9.91004 267.359 9.60446 266.625 10.5765C266.22 11.113 265.834 12.125 263.814 17.9528C262.788 20.9119 261.918 23.2998 261.88 23.2594C261.842 23.2188 260.935 20.6086 259.865 17.4588C258.794 14.309 257.831 11.5609 257.726 11.3519C257.437 10.7795 257.002 10.3015 256.622 10.1413C256.232 9.97666 255.406 9.963 255.029 10.1149ZM118.51 10.9032C116.675 11.3511 114.965 12.7343 114.043 14.5165C113.344 15.8673 113.228 16.4382 113.174 18.7986L113.124 20.9265H120.176H127.227L127.171 18.8511C127.107 16.5003 127.011 16.0098 126.341 14.6216C125.99 13.8943 125.735 13.5518 124.968 12.7786C123.923 11.7248 123.017 11.1887 121.788 10.8972C120.948 10.6978 119.34 10.7008 118.51 10.9032ZM91.2075 13.4378C91.8861 13.7461 92.6926 14.5393 93.0044 15.2048C93.2837 15.8008 93.575 16.9062 93.5775 17.38L93.579 17.6689H89.5715H85.5639V17.4283C85.5639 17.0505 85.8613 15.9897 86.1398 15.3742C86.5756 14.4108 87.1947 13.8001 88.1456 13.3957C88.6606 13.1767 88.8691 13.1481 89.7276 13.1791C90.454 13.2053 90.8468 13.274 91.2075 13.4378ZM212.781 13.486C213.942 14.0269 214.715 15.1894 214.985 16.8016L215.121 17.6164L211.116 17.6439C208.914 17.6591 207.087 17.6469 207.057 17.6168C207.028 17.5869 207.08 17.2074 207.173 16.7739C207.53 15.1123 208.389 13.9186 209.598 13.4054C210.138 13.1761 210.338 13.1477 211.203 13.1777C212.002 13.2053 212.305 13.2646 212.781 13.486ZM48.1806 13.5583C50.2688 14.2143 51.4678 16.5966 51.2809 19.718C51.1698 21.5729 50.7069 22.8033 49.7571 23.7683C48.7995 24.7411 47.5472 25.152 46.2398 24.9221C43.9929 24.5271 42.7002 22.706 42.5086 19.6655C42.3589 17.2911 43.1823 15.011 44.5266 14.0774C45.5275 13.3821 46.9687 13.1774 48.1806 13.5583ZM190.302 13.6691C191.438 14.1059 192.369 15.2071 192.863 16.6976C193.105 17.4291 193.133 17.6759 193.138 19.1401C193.143 20.649 193.122 20.8346 192.852 21.662C192.153 23.8064 190.728 24.8911 188.732 24.7988C187.284 24.7319 186.1 23.925 185.402 22.5294C184.876 21.4772 184.725 20.7233 184.725 19.1401C184.725 17.6129 184.871 16.8337 185.348 15.8157C186.305 13.772 188.31 12.9033 190.302 13.6691ZM171.183 20.4273C171.049 22.4246 170.725 23.3469 169.888 24.1103C168.965 24.9527 167.692 25.3856 166.333 25.32C165.546 25.2821 165.352 25.2331 164.92 24.9639C164.152 24.4845 163.803 23.9085 163.761 23.0499C163.718 22.1692 163.907 21.7612 164.606 21.2312C165.192 20.7864 165.578 20.6628 168.317 20.0402C169.434 19.7865 170.464 19.5306 170.607 19.4713C171.241 19.209 171.261 19.2433 171.183 20.4273ZM113.148 26.4433V28.2822H120.175H127.201V26.4433V24.6043H120.175H113.148V26.4433Z" fill="#FAFAFA"/>
</svg>
