<svg width="100" height="75" viewBox="0 0 100 75" fill="none" xmlns="http://www.w3.org/2000/svg">
<path fill-rule="evenodd" clip-rule="evenodd" d="M100 57.8458V40.6916H87.8613H75.7229L75.8559 38.1631C76.3568 28.6372 78.4082 23.3289 82.3443 21.372C83.6746 20.7106 85.1256 20.3534 87.7441 20.0429L89.8438 19.7938V9.89689V2.61511e-06L87.9395 0.130498C80.1934 0.661386 75.7279 1.59207 71.7285 3.50898C62.8826 7.74875 58.3533 15.9306 56.7439 30.5775C56.1814 35.6974 56.0549 40.6928 56.0549 57.7962L56.0547 75H78.0273H100V57.8458ZM43.9453 57.8474V40.6946L31.9998 40.6436L20.0543 40.5924L20.092 39.0059C20.149 36.6103 20.4697 33.4969 20.9002 31.162C21.6467 27.1134 22.8664 24.3875 24.6881 22.6971C26.415 21.0943 27.9723 20.5085 31.6895 20.0627L33.7891 19.8108V9.92407C33.7891 0.535258 33.7713 0.0370898 33.4375 0.0370898C32.4674 0.0370898 27.5686 0.481116 25.6273 0.744875C10.1285 2.85117 2.77715 11.677 0.695312 30.6767C0.113281 35.988 0 40.3822 0 57.6397V75H21.9727H43.9453V57.8474Z" fill="#FFAF00"/>
</svg>
